<svg id="acadfcc5-de37-4c37-9e61-9e65e73ad589" data-name="Layer 1" xmlns="http://www.w3.org/2000/svg" xmlns:xlink="http://www.w3.org/1999/xlink" viewBox="0 0 180 50"><defs><style>.b17ed692-394e-46f8-865d-a603a45e966f{fill:#fff;}.accfc892-2d40-43f0-a62c-8dc1be9f6544{fill:url(#af495ccd-98c2-43b9-8f01-47e0299ad13b);}</style><linearGradient id="af495ccd-98c2-43b9-8f01-47e0299ad13b" x1="99.81" y1="37.14" x2="95.26" y2="35.3" gradientUnits="userSpaceOnUse"><stop offset="0" stop-color="#ccc"/><stop offset="0.04" stop-color="#cecece" stop-opacity="0.95"/><stop offset="0.52" stop-color="#e8e8e8" stop-opacity="0.44"/><stop offset="0.85" stop-color="#f9f9f9" stop-opacity="0.12"/><stop offset="1" stop-color="#fff" stop-opacity="0"/></linearGradient></defs><title>logo-white</title><path class="b17ed692-394e-46f8-865d-a603a45e966f" d="M23,18.68a11.84,11.84,0,0,0-3.36-4.55,14.5,14.5,0,0,0-5.4-2.75,26.58,26.58,0,0,0-7.29-.91H.48A.47.47,0,0,0,0,11v28.1a.47.47,0,0,0,.48.47H6.91a26.16,26.16,0,0,0,7.29-.93,14.83,14.83,0,0,0,5.4-2.77A11.77,11.77,0,0,0,23,31.27,16,16,0,0,0,24.11,25,16,16,0,0,0,23,18.68Zm-7.57,8.71a6,6,0,0,1-1.3,1.94,6.21,6.21,0,0,1-1.94,1.31,5.91,5.91,0,0,1-2.37.48H8.64a.48.48,0,0,1-.49-.48V19.42a.49.49,0,0,1,.49-.48c.33,0,.7,0,1.14,0a5.42,5.42,0,0,1,2.37.45,6,6,0,0,1,1.94,1.31A6.08,6.08,0,0,1,15.87,25,5.91,5.91,0,0,1,15.39,27.39Z"/><path class="b17ed692-394e-46f8-865d-a603a45e966f" d="M25.56,25a14.86,14.86,0,0,1,1.2-5.93A15.31,15.31,0,0,1,34.88,11a15.23,15.23,0,0,1,11.85,0,15.29,15.29,0,0,1,8.13,8.12,15.23,15.23,0,0,1,0,11.85,15.26,15.26,0,0,1-8.13,8.13,15.23,15.23,0,0,1-11.85,0,15.29,15.29,0,0,1-8.12-8.13A14.81,14.81,0,0,1,25.56,25Zm9.15,0a5.91,5.91,0,0,0,.48,2.37,6,6,0,0,0,1.31,1.94,6.16,6.16,0,0,0,1.93,1.31,6.12,6.12,0,0,0,4.75,0,6.15,6.15,0,0,0,3.25-3.25,6.12,6.12,0,0,0,0-4.75,6.16,6.16,0,0,0-1.31-1.93,6,6,0,0,0-1.94-1.31,6.12,6.12,0,0,0-4.75,0A6.09,6.09,0,0,0,34.71,25Z"/><path class="b17ed692-394e-46f8-865d-a603a45e966f" d="M152.34,31.42V29a.48.48,0,0,1,.48-.48h6.75a.48.48,0,0,0,.48-.48V21.79a.47.47,0,0,0-.48-.47h-6.75a.49.49,0,0,1-.48-.48V18.57a.49.49,0,0,1,.48-.48h6.88a.47.47,0,0,0,.48-.48V11a.47.47,0,0,0-.48-.48H150a.48.48,0,0,0-.45.31l-6.34,16.71a2.58,2.58,0,0,0-.17.91V39.05a.48.48,0,0,0,.48.47H160a.48.48,0,0,0,.48-.47V32.38a.49.49,0,0,0-.48-.48h-7.19A.48.48,0,0,1,152.34,31.42Z"/><path class="b17ed692-394e-46f8-865d-a603a45e966f" d="M162.7,10.47h8.71a.47.47,0,0,1,.48.48V31.42a.48.48,0,0,0,.48.48h7.06a.49.49,0,0,1,.48.48v6.67a.48.48,0,0,1-.48.47H162.7a.47.47,0,0,1-.48-.47V11A.47.47,0,0,1,162.7,10.47Z"/><path class="b17ed692-394e-46f8-865d-a603a45e966f" d="M97.58,29.68a.47.47,0,0,1,.12-.61,10.4,10.4,0,0,0-6.4-18.61,8.35,8.35,0,0,0-.87,0h-11A.48.48,0,0,0,79,11v28.1a.48.48,0,0,0,.48.47h8.32a.47.47,0,0,0,.48-.47V32a.48.48,0,0,1,.89-.24l7.86,10a.51.51,0,0,0,.43.24h8a.48.48,0,0,0,.42-.72Zm-9.34-5.4V18.79a.48.48,0,0,1,.48-.48h0a5.14,5.14,0,0,1,2.81.74,2.71,2.71,0,0,1,1.15,2.48A2.74,2.74,0,0,1,91.53,24a5.14,5.14,0,0,1-2.81.74h0A.49.49,0,0,1,88.24,24.28Z"/><path class="b17ed692-394e-46f8-865d-a603a45e966f" d="M61.35,18.09H57a.48.48,0,0,1-.48-.48V11a.48.48,0,0,1,.48-.48H76.29a.47.47,0,0,1,.48.48v6.66a.47.47,0,0,1-.48.48h-4.4a.49.49,0,0,0-.48.48V39.05a.47.47,0,0,1-.48.47H62.31a.47.47,0,0,1-.48-.47V18.57A.49.49,0,0,0,61.35,18.09Z"/><path class="b17ed692-394e-46f8-865d-a603a45e966f" d="M177.23,13.24v-2h.86a1.75,1.75,0,0,1,.47,0,.41.41,0,0,1,.23.2.57.57,0,0,1,.09.32.52.52,0,0,1-.13.37.61.61,0,0,1-.4.19,1,1,0,0,1,.22.17,2.13,2.13,0,0,1,.23.33l.25.4h-.49l-.3-.45a2.51,2.51,0,0,0-.21-.29.38.38,0,0,0-.13-.09l-.2,0h-.09v.85Zm.4-1.17h.31a1.36,1.36,0,0,0,.37,0,.28.28,0,0,0,.11-.08.29.29,0,0,0,0-.16.25.25,0,0,0-.05-.16.27.27,0,0,0-.16-.08h-.62Z"/><path class="b17ed692-394e-46f8-865d-a603a45e966f" d="M178,14.24a2,2,0,1,1,2-2A2,2,0,0,1,178,14.24Zm0-3.75a1.76,1.76,0,1,0,1.76,1.76A1.76,1.76,0,0,0,178,10.49Z"/><path class="accfc892-2d40-43f0-a62c-8dc1be9f6544" d="M105.8,41.36,98.19,30.55,92,35.47l5,6.37a.51.51,0,0,0,.43.24h8A.48.48,0,0,0,105.8,41.36Z"/><path class="b17ed692-394e-46f8-865d-a603a45e966f" d="M115.55,10.47h-6.31a.48.48,0,0,0-.45.3L97,41.4a.5.5,0,0,0,.44.68h8.18a.48.48,0,0,0,.45-.31L108,36.91l2.44-6.4L112,26.57a.48.48,0,0,1,.89,0l1.51,3.94,2.44,6.4.85,2.3a.47.47,0,0,0,.45.31h8.12a.47.47,0,0,0,.44-.64L116,10.78A.46.46,0,0,0,115.55,10.47Z"/><path class="b17ed692-394e-46f8-865d-a603a45e966f" d="M129.61,39.53h6.31a.48.48,0,0,0,.45-.3L148.19,8.6a.5.5,0,0,0-.44-.68h-8.19a.47.47,0,0,0-.44.31l-2,4.86-2.44,6.4-1.52,3.94a.48.48,0,0,1-.89,0l-1.52-3.94-2.43-6.4-.85-2.3a.48.48,0,0,0-.45-.31H119a.48.48,0,0,0-.45.64l10.66,28.1A.48.48,0,0,0,129.61,39.53Z"/></svg>